<svg width="45" height="45" viewBox="0 0 45 45" fill="none" xmlns="http://www.w3.org/2000/svg">
<path d="M12.6 3.59998C12.465 3.5999 12.3317 3.63019 12.21 3.68861C12.0882 3.74704 11.9812 3.83209 11.8968 3.93748L1.16892 17.3478C1.01452 17.5001 0.920266 17.7029 0.90349 17.9191C0.902868 17.9238 0.902282 17.9285 0.901733 17.9332V17.9385C0.901705 17.9426 0.901705 17.9467 0.901733 17.9508C0.900698 17.9671 0.900112 17.9836 0.899975 18C0.899878 18.0076 0.899878 18.0152 0.899975 18.0228V40.5C0.899999 40.7387 0.994828 40.9676 1.16361 41.1363C1.33238 41.3051 1.56129 41.4 1.79997 41.4H13.3488C13.446 41.416 13.5452 41.416 13.6424 41.4H31.3488C31.446 41.416 31.5452 41.416 31.6424 41.4H43.2C43.4387 41.4 43.6676 41.3051 43.8363 41.1363C44.0051 40.9676 44.1 40.7387 44.1 40.5V18C44.1 17.997 44.1 17.9941 44.1 17.9912C44.0997 17.9765 44.0992 17.9619 44.0982 17.9472C44.0972 17.9267 44.0954 17.9062 44.0929 17.8857V17.884V17.8822C44.0686 17.6778 43.9749 17.488 43.8275 17.3443L33.1031 3.93748C33.0187 3.83209 32.9117 3.74704 32.79 3.68861C32.6683 3.63019 32.535 3.5999 32.4 3.59998H12.6ZM13.0324 5.39998H31.9676L41.3261 17.1H30.9726L23.1363 9.26365C22.9675 9.09493 22.7386 9.00015 22.5 9.00015C22.2613 9.00015 22.0324 9.09493 21.8636 9.26365L14.0273 17.1H3.6738L13.0324 5.39998ZM22.5 11.1726L29.9636 18.6363C30.1324 18.8051 30.3613 18.8999 30.6 18.9H42.3V39.6H32.4V21.6C32.4 21.3613 32.3051 21.1324 32.1363 20.9636C31.9676 20.7948 31.7387 20.7 31.5 20.7H29.7C29.5807 20.6983 29.4623 20.7203 29.3516 20.7648C29.241 20.8093 29.1402 20.8753 29.0553 20.959C28.9704 21.0428 28.9029 21.1426 28.8569 21.2526C28.8109 21.3626 28.7872 21.4807 28.7872 21.6C28.7872 21.7192 28.8109 21.8373 28.8569 21.9474C28.9029 22.0574 28.9704 22.1572 29.0553 22.2409C29.1402 22.3247 29.241 22.3907 29.3516 22.4352C29.4623 22.4796 29.5807 22.5017 29.7 22.5H30.6V39.6H27V32.4C27 29.9254 24.9745 27.9 22.5 27.9C20.0254 27.9 18 29.9254 18 32.4V39.6H14.4V22.5H15.3C15.4192 22.5017 15.5376 22.4796 15.6483 22.4352C15.759 22.3907 15.8597 22.3247 15.9446 22.2409C16.0296 22.1572 16.097 22.0574 16.1431 21.9474C16.1891 21.8373 16.2128 21.7192 16.2128 21.6C16.2128 21.4807 16.1891 21.3626 16.1431 21.2526C16.097 21.1426 16.0296 21.0428 15.9446 20.959C15.8597 20.8753 15.759 20.8093 15.6483 20.7648C15.5376 20.7203 15.4192 20.6983 15.3 20.7H13.5C13.2613 20.7 13.0324 20.7948 12.8636 20.9636C12.6948 21.1324 12.6 21.3613 12.6 21.6V39.6H2.69997V18.9H14.4C14.6387 18.8999 14.8675 18.8051 15.0363 18.6363L22.5 11.1726ZM22.5 18C20.5224 18 18.9 19.6224 18.9 21.6C18.9 23.5775 20.5224 25.2 22.5 25.2C24.4775 25.2 26.1 23.5775 26.1 21.6C26.1 19.6224 24.4775 18 22.5 18ZM22.5 19.8C23.5047 19.8 24.3 20.5952 24.3 21.6C24.3 22.6047 23.5047 23.4 22.5 23.4C21.4952 23.4 20.7 22.6047 20.7 21.6C20.7 20.5952 21.4952 19.8 22.5 19.8ZM5.39997 21.6C5.16129 21.6 4.93238 21.6948 4.76361 21.8636C4.59483 22.0324 4.5 22.2613 4.49997 22.5V27C4.5 27.2387 4.59483 27.4676 4.76361 27.6363C4.93238 27.8051 5.16129 27.9 5.39997 27.9H9.89997C10.1387 27.9 10.3676 27.8051 10.5363 27.6363C10.7051 27.4676 10.8 27.2387 10.8 27V22.5C10.8 22.2613 10.7051 22.0324 10.5363 21.8636C10.3676 21.6948 10.1387 21.6 9.89997 21.6H5.39997ZM35.1 21.6C34.8613 21.6 34.6324 21.6948 34.4636 21.8636C34.2948 22.0324 34.2 22.2613 34.2 22.5V27C34.2 27.2387 34.2948 27.4676 34.4636 27.6363C34.6324 27.8051 34.8613 27.9 35.1 27.9H39.6C39.8387 27.9 40.0676 27.8051 40.2363 27.6363C40.4051 27.4676 40.5 27.2387 40.5 27V22.5C40.5 22.2613 40.4051 22.0324 40.2363 21.8636C40.0676 21.6948 39.8387 21.6 39.6 21.6H35.1ZM6.29997 23.4H8.99998V26.1H6.29997V23.4ZM36 23.4H38.7V26.1H36V23.4ZM22.5 29.7C24.0016 29.7 25.2 30.8983 25.2 32.4V39.6H19.8V32.4C19.8 30.8983 20.9983 29.7 22.5 29.7ZM5.39997 30.6C5.16129 30.6 4.93238 30.6948 4.76361 30.8636C4.59483 31.0324 4.5 31.2613 4.49997 31.5V36C4.5 36.2387 4.59483 36.4676 4.76361 36.6363C4.93238 36.8051 5.16129 36.9 5.39997 36.9H9.89997C10.1387 36.9 10.3676 36.8051 10.5363 36.6363C10.7051 36.4676 10.8 36.2387 10.8 36V31.5C10.8 31.2613 10.7051 31.0324 10.5363 30.8636C10.3676 30.6948 10.1387 30.6 9.89997 30.6H5.39997ZM35.1 30.6C34.8613 30.6 34.6324 30.6948 34.4636 30.8636C34.2948 31.0324 34.2 31.2613 34.2 31.5V36C34.2 36.2387 34.2948 36.4676 34.4636 36.6363C34.6324 36.8051 34.8613 36.9 35.1 36.9H39.6C39.8387 36.9 40.0676 36.8051 40.2363 36.6363C40.4051 36.4676 40.5 36.2387 40.5 36V31.5C40.5 31.2613 40.4051 31.0324 40.2363 30.8636C40.0676 30.6948 39.8387 30.6 39.6 30.6H35.1ZM6.29997 32.4H8.99998V35.1H6.29997V32.4ZM36 32.4H38.7V35.1H36V32.4Z" fill="#F7F6F2"/>
</svg>
