<svg width="45" height="45" viewBox="0 0 45 45" fill="none" xmlns="http://www.w3.org/2000/svg">
<g clip-path="url(#clip0_38_409)">
<path d="M6.30005 1.80005V43.2001H16.2V41.4001H8.10005V3.60005H26.1V14.4H36.9V26.1H38.7001V13.1274L27.3727 1.80005H6.30005ZM27.9 4.87271L35.6274 12.6H27.9V4.87271ZM16.2 8.10005V10.1356C14.7212 10.4188 13.6309 11.1505 13.1608 12.0077C12.5892 13.05 12.6 14.0819 12.6 14.0819C12.6 15.4769 13.3169 16.5662 14.2295 17.2442C15.1422 17.9222 16.2229 18.3066 17.2354 18.6838C18.2479 19.0611 19.1922 19.4324 19.7983 19.8827C20.4044 20.333 20.7 20.7451 20.7 21.6C20.7 21.6 20.6942 22.2524 20.2747 22.9237C19.8551 23.595 19.11 24.3 17.1 24.3C15.15 24.3 14.4228 23.4578 13.9676 22.5475C13.5125 21.6372 13.5 20.7001 13.5 20.7001H11.7C11.7 20.7001 11.6876 22.0129 12.3575 23.3526C12.9398 24.5173 14.2139 25.6756 16.2 25.9735V27.9H18V25.8944C19.8727 25.6369 21.2001 24.8369 21.8004 23.8764C22.5059 22.7477 22.5 21.6 22.5 21.6C22.5 20.205 21.7832 19.1158 20.8706 18.4377C19.9579 17.7597 18.8772 17.3753 17.8647 16.9981C16.8522 16.6209 15.9079 16.2513 15.3018 15.801C14.6957 15.3507 14.4 14.9369 14.4 14.0819C14.4 14.0819 14.4109 13.473 14.7393 12.8743C15.0677 12.2755 15.5736 11.7 17.1 11.7C18.6 11.7 19.1023 12.3173 19.445 13.0026C19.7876 13.6879 19.8 14.4 19.8 14.4H21.6C21.6 14.4 21.6125 13.3122 21.0551 12.1975C20.5959 11.2791 19.4992 10.4679 18 10.1567V8.10005H16.2ZM37.8001 27.9C35.9735 27.9 34.32 28.156 33.0434 28.612C32.4051 28.8399 31.8562 29.1139 31.4139 29.4874C31.0334 29.8087 30.7212 30.2577 30.637 30.7899C30.612 30.8743 30.5996 30.962 30.6 31.0501V32.4897C30.393 32.3925 30.188 32.2946 29.9567 32.212C28.6801 31.756 27.0266 31.5 25.2001 31.5C23.3735 31.5 21.72 31.756 20.4434 32.212C19.8051 32.4399 19.2562 32.7139 18.8139 33.0874C18.4334 33.4087 18.1212 33.8577 18.037 34.3899C18.012 34.4743 17.9996 34.562 18 34.6501V41.8501C18 42.5012 18.3716 43.0393 18.8139 43.4127C19.2562 43.7862 19.8051 44.0602 20.4434 44.2881C21.72 44.744 23.3735 45 25.2001 45C27.0266 45 28.68 44.744 29.9567 44.2881C30.5557 44.0742 31.0727 43.817 31.5 43.4778C31.9274 43.817 32.4444 44.0742 33.0434 44.2881C34.32 44.744 35.9735 45 37.8001 45C39.6266 45 41.2801 44.744 42.5567 44.2881C43.195 44.0602 43.7439 43.7862 44.1862 43.4127C44.6285 43.0393 45 42.5012 45 41.8501V38.25V34.6501V31.0501C45.0012 30.9596 44.9888 30.8696 44.9631 30.7829V30.7811C44.8767 30.2528 44.5647 29.8069 44.1862 29.4874C43.7439 29.1139 43.195 28.8399 42.5567 28.612C41.2801 28.156 39.6266 27.9 37.8001 27.9ZM37.8001 29.7001C39.4529 29.7001 40.9485 29.9481 41.952 30.3065C42.4538 30.4857 42.829 30.697 43.0243 30.862C43.2196 31.0269 43.2001 31.0799 43.2001 31.0501C43.2001 31.0202 43.2196 31.0732 43.0243 31.2381C42.829 31.4031 42.4538 31.6144 41.952 31.7936C40.9485 32.152 39.4529 32.4 37.8001 32.4C36.1472 32.4 34.6516 32.152 33.6481 31.7936C33.1463 31.6144 32.7711 31.4031 32.5758 31.2381C32.3805 31.0732 32.4 31.0202 32.4 31.0501C32.4 31.0799 32.3805 31.0269 32.5758 30.862C32.7711 30.697 33.1463 30.4857 33.6481 30.3065C34.6516 29.9481 36.1472 29.7001 37.8001 29.7001ZM32.4 33.2104C32.6071 33.3076 32.8121 33.4055 33.0434 33.4881C34.32 33.9441 35.9735 34.2001 37.8001 34.2001C39.6266 34.2001 41.2801 33.9441 42.5567 33.4881C42.788 33.4055 42.993 33.3076 43.2001 33.2104V34.6501C43.2001 34.6204 43.2196 34.6732 43.0243 34.8381C42.829 35.003 42.4538 35.2144 41.952 35.3936C40.9485 35.752 39.4529 36 37.8001 36C36.1472 36 34.6516 35.752 33.6481 35.3936C33.1463 35.2144 32.7711 35.003 32.5758 34.8381C32.3805 34.6732 32.4 34.6204 32.4 34.6501V33.2104ZM25.2001 33.3001C26.8529 33.3001 28.3485 33.5481 29.352 33.9065C29.8538 34.0857 30.229 34.297 30.4243 34.462C30.6196 34.6269 30.6 34.6799 30.6 34.6501C30.6 34.6202 30.6196 34.6732 30.4243 34.8381C30.229 35.0031 29.8538 35.2144 29.352 35.3936C28.3485 35.752 26.8529 36 25.2001 36C23.5472 36 22.0516 35.752 21.0481 35.3936C20.5463 35.2144 20.1711 35.0031 19.9758 34.8381C19.7805 34.6732 19.8 34.6202 19.8 34.6501C19.8 34.6799 19.7805 34.6269 19.9758 34.462C20.1711 34.297 20.5463 34.0857 21.0481 33.9065C22.0516 33.5481 23.5472 33.3001 25.2001 33.3001ZM19.8 36.8104C20.0071 36.9076 20.2121 37.0055 20.4434 37.0881C21.72 37.5441 23.3735 37.8 25.2001 37.8C27.0266 37.8 28.6801 37.5441 29.9567 37.0881C30.188 37.0055 30.393 36.9076 30.6 36.8104V38.25C30.6 38.2204 30.6196 38.2732 30.4243 38.4381C30.229 38.603 29.8538 38.8144 29.352 38.9936C28.3485 39.352 26.8529 39.6001 25.2001 39.6001C23.5472 39.6001 22.0516 39.352 21.0481 38.9936C20.5463 38.8144 20.1711 38.603 19.9758 38.4381C19.7805 38.2732 19.8 38.2204 19.8 38.25V36.8104ZM32.4 36.8104C32.6071 36.9076 32.8121 37.0055 33.0434 37.0881C34.32 37.544 35.9735 37.8 37.8001 37.8C39.6266 37.8 41.2801 37.544 42.5567 37.0881C42.788 37.0055 42.993 36.9076 43.2001 36.8104V38.25C43.2001 38.2204 43.2196 38.2732 43.0243 38.4381C42.829 38.603 42.4538 38.8144 41.952 38.9936C40.9485 39.352 39.4529 39.6001 37.8001 39.6001C36.1472 39.6001 34.6516 39.352 33.6481 38.9936C33.1463 38.8144 32.7711 38.603 32.5758 38.4381C32.3805 38.2732 32.4 38.2204 32.4 38.25V36.8104ZM19.8 40.4104C20.0071 40.5076 20.2121 40.6055 20.4434 40.6881C21.72 41.144 23.3735 41.4001 25.2001 41.4001C27.0266 41.4001 28.68 41.144 29.9567 40.6881C30.188 40.6055 30.393 40.5076 30.6 40.4104V41.8501C30.6 41.8204 30.6196 41.8732 30.4243 42.0381C30.229 42.203 29.8538 42.4144 29.352 42.5936C28.3485 42.952 26.8529 43.2001 25.2001 43.2001C23.5472 43.2001 22.0516 42.952 21.0481 42.5936C20.5463 42.4144 20.1711 42.203 19.9758 42.0381C19.7805 41.8732 19.8 41.8204 19.8 41.8501V40.4104ZM32.4 40.4104C32.6071 40.5076 32.8121 40.6055 33.0434 40.6881C34.32 41.144 35.9735 41.4001 37.8001 41.4001C39.6266 41.4001 41.2801 41.144 42.5567 40.6881C42.788 40.6055 42.993 40.5076 43.2001 40.4104V41.8501C43.2001 41.8204 43.2196 41.8732 43.0243 42.0381C42.829 42.203 42.4538 42.4144 41.952 42.5936C40.9485 42.952 39.4529 43.2001 37.8001 43.2001C36.1472 43.2001 34.6516 42.952 33.6481 42.5936C33.1463 42.4144 32.7711 42.203 32.5758 42.0381C32.3805 41.8732 32.4 41.8204 32.4 41.8501V40.4104Z" fill="#F7F6F2"/>
</g>
<defs>
<clipPath id="clip0_38_409">
<rect width="45" height="45" fill="white"/>
</clipPath>
</defs>
</svg>
