<svg width="50" height="50" viewBox="0 0 50 50" fill="none" xmlns="http://www.w3.org/2000/svg">
<path d="M26.6367 2C24.3547 2 22.6143 2.79285 21.7149 4.20703C20.9048 5.48073 20.8921 7.08254 21.2676 8.72656C21.0763 9.06131 20.9574 9.45347 21.0117 9.94531C21.0749 10.5148 21.2151 10.9679 21.4805 11.3359C21.5782 11.4715 21.7534 11.4789 21.8848 11.5781C22.0199 12.1101 22.1613 12.6602 22.4258 13.0176C22.6116 13.2685 22.8007 13.4794 22.9766 13.6504C22.9842 13.6578 22.9926 13.6608 23 13.668V14.6602C22.9328 14.8112 22.823 14.9514 22.4746 15.1484C22.09 15.366 21.5149 15.5884 20.8907 15.8926C20.2664 16.1968 19.5779 16.5947 19.0157 17.252C18.4535 17.9092 18.064 18.8252 18.002 19.9453C17.987 20.2195 18.0854 20.4878 18.2742 20.6873C18.4629 20.8868 18.7254 20.9998 19 21H33C33.2747 20.9999 33.5371 20.8868 33.7259 20.6873C33.9146 20.4878 34.0131 20.2195 33.9981 19.9453C33.9361 18.8253 33.5466 17.9093 32.9844 17.252C32.4222 16.5946 31.7337 16.1969 31.1094 15.8926C30.4851 15.5883 29.9101 15.364 29.5254 15.1465C29.177 14.9495 29.0672 14.8109 29 14.6602V13.6563C29.0097 13.6465 29.0212 13.641 29.0313 13.6309C29.2043 13.4568 29.3911 13.2444 29.5723 12.9942C29.8283 12.6406 29.9636 12.1085 30.0977 11.5938C30.2295 11.4945 30.404 11.4874 30.502 11.3516C30.7678 10.983 30.9102 10.5306 30.9727 9.96095C31.0148 9.57989 30.9796 9.22346 30.8477 8.89259C30.83 8.84817 30.752 8.82423 30.7305 8.77931C31.0096 7.63443 31.1005 6.41348 30.6582 5.29298C30.2361 4.22347 29.1445 3.48984 27.7813 3.22462L27.5762 2.65821C27.4325 2.26318 27.0571 2.00016 26.6367 2ZM25.9766 4.11133L26.0606 4.3418C26.2043 4.73683 26.5797 4.99984 27 5C28.1931 5 28.5387 5.37334 28.7969 6.02734C29.055 6.68134 29.027 7.74609 28.7305 8.70507C28.6207 9.06242 28.7194 9.45117 28.9863 9.71288C28.9867 9.73198 28.9876 9.71324 28.9844 9.74218C28.9534 10.0244 28.9101 10.0806 28.8985 10.1055C28.5445 10.2684 28.3173 10.622 28.3164 11.0117C28.3164 11.1332 28.18 11.509 27.9531 11.8223C27.8397 11.9789 27.7132 12.1221 27.6133 12.2226C27.5134 12.3232 27.3863 12.3991 27.5039 12.332C27.1927 12.5099 27.0004 12.8407 27 13.1992V14.9336C27.0002 15.044 27.0187 15.1535 27.0547 15.2578C27.3288 16.0586 27.9564 16.5592 28.5391 16.8887C29.1218 17.2182 29.7156 17.4375 30.2324 17.6895C30.7493 17.9414 31.1739 18.2125 31.4649 18.5527C31.5515 18.6541 31.5558 18.8789 31.625 19H20.375C20.4443 18.879 20.4485 18.6541 20.5352 18.5527C20.8261 18.2126 21.2507 17.9433 21.7676 17.6914C22.2845 17.4395 22.8782 17.2183 23.461 16.8887C24.0437 16.5591 24.6714 16.0587 24.9453 15.2578C24.9813 15.1535 24.9998 15.044 25 14.9336V13.1992C24.9995 12.8392 24.8056 12.5073 24.4922 12.3301C24.5928 12.3869 24.4714 12.3143 24.3711 12.2168C24.2708 12.1194 24.1462 11.9808 24.0332 11.8281C23.8072 11.5228 23.666 11.161 23.666 10.9961C23.6655 10.6069 23.4392 10.2533 23.086 10.0899C23.0741 10.0646 23.0294 10.009 22.9981 9.72658C22.9938 9.68774 23.002 9.70039 23.0078 9.68752C23.2618 9.43047 23.3574 9.05639 23.2578 8.709C22.8297 7.21512 22.9278 6.02734 23.4024 5.28127C23.8035 4.65055 24.6466 4.24458 25.9766 4.11133ZM17.9571 8.99609C17.8335 9.00302 17.7123 9.03282 17.5996 9.08398C11.3619 11.8082 7.00002 17.6954 7.00002 24.5371C7.00002 25.0625 7.02607 25.5836 7.07619 26.0977C7.10429 26.4587 7.32534 26.7763 7.6541 26.928C7.98286 27.0798 8.36798 27.042 8.66096 26.8292C8.95395 26.6164 9.10903 26.2619 9.06642 25.9023C9.02254 25.4524 9.00001 24.9976 9.00001 24.5371C9.00001 18.5448 12.8142 13.3557 18.4004 10.916C18.8481 10.7269 19.0951 10.2433 18.9857 9.76969C18.8764 9.29612 18.4424 8.96973 17.9571 8.99609ZM33.8242 9.39453C33.3619 9.40424 32.9665 9.72966 32.8681 10.1815C32.7696 10.6333 32.9938 11.0938 33.4102 11.2949C38.5536 13.8704 42 18.8389 42 24.5371C42 24.9977 41.9774 25.4537 41.9336 25.9023C41.891 26.2619 42.0461 26.6165 42.3391 26.8292C42.6321 27.042 43.0172 27.0798 43.3459 26.928C43.6747 26.7763 43.8957 26.4587 43.9238 26.0977C43.974 25.5843 44 25.0626 44 24.5371C44 18.0313 40.0552 12.3843 34.3067 9.50585C34.1577 9.42889 33.9918 9.39062 33.8242 9.39453ZM11.6367 28C9.35468 28 7.61434 28.7928 6.71486 30.207C5.90474 31.4807 5.89212 33.0825 6.26759 34.7266C6.07627 35.0613 5.95742 35.4535 6.01173 35.9453C6.07487 36.5148 6.21504 36.9679 6.48048 37.3359C6.57822 37.4715 6.75338 37.4789 6.88478 37.5781C7.01985 38.1101 7.16126 38.6602 7.4258 39.0176C7.61155 39.2685 7.80068 39.4795 7.97658 39.6504C7.98419 39.6578 7.99262 39.6608 8.00002 39.668V40.6602C7.93282 40.8112 7.82301 40.9514 7.47463 41.1484C7.09 41.366 6.51488 41.5884 5.89065 41.8926C5.26641 42.1968 4.57786 42.5947 4.01565 43.252C3.45344 43.9092 3.06394 44.8252 3.00198 45.9453C2.98699 46.2195 3.08542 46.4878 3.27417 46.6873C3.46293 46.8868 3.7254 46.9999 4.00002 47H18C18.2746 46.9999 18.5371 46.8868 18.7259 46.6873C18.9146 46.4878 19.0131 46.2195 18.9981 45.9453C18.9361 44.8252 18.5466 43.9093 17.9844 43.252C17.4222 42.5946 16.7337 42.1969 16.1094 41.8926C15.4851 41.5883 14.9101 41.364 14.5254 41.1465C14.177 40.9495 14.0672 40.8109 14 40.6602V39.6563C14.0097 39.6465 14.0212 39.641 14.0313 39.6309C14.2043 39.4568 14.3911 39.2444 14.5723 38.9941C14.8283 38.6406 14.9636 38.1085 15.0977 37.5938C15.2295 37.4945 15.404 37.4874 15.502 37.3516C15.7678 36.983 15.9102 36.5306 15.9727 35.9609C16.0148 35.5799 15.9796 35.2235 15.8477 34.8926C15.83 34.8482 15.752 34.8242 15.7305 34.7793C16.0096 33.6344 16.1005 32.4135 15.6582 31.293C15.236 30.2235 14.1445 29.4898 12.7813 29.2246L12.5762 28.6582C12.4325 28.2632 12.0571 28.0002 11.6367 28ZM40.6367 28C38.3547 28 36.6143 28.7928 35.7149 30.207C34.9048 31.4807 34.8921 33.0825 35.2676 34.7266C35.0763 35.0613 34.9574 35.4535 35.0117 35.9453C35.0749 36.5148 35.215 36.9679 35.4805 37.3359C35.5782 37.4715 35.7534 37.4789 35.8848 37.5781C36.0199 38.1101 36.1613 38.6602 36.4258 39.0176C36.6116 39.2685 36.8007 39.4795 36.9766 39.6504C36.9842 39.6578 36.9926 39.6608 37 39.668V40.6602C36.9328 40.8112 36.823 40.9514 36.4746 41.1484C36.09 41.366 35.5149 41.5884 34.8907 41.8926C34.2664 42.1968 33.5779 42.5947 33.0157 43.252C32.4535 43.9092 32.0639 44.8252 32.002 45.9453C31.987 46.2195 32.0854 46.4878 32.2742 46.6873C32.4629 46.8868 32.7254 46.9999 33 47H47C47.2747 46.9999 47.5371 46.8868 47.7259 46.6873C47.9146 46.4878 48.0131 46.2195 47.9981 45.9453C47.9361 44.8252 47.5466 43.9093 46.9844 43.252C46.4222 42.5946 45.7337 42.1969 45.1094 41.8926C44.4851 41.5883 43.9101 41.364 43.5254 41.1465C43.177 40.9495 43.0672 40.8109 43 40.6602V39.6563C43.0097 39.6465 43.0212 39.641 43.0313 39.6309C43.2043 39.4568 43.3911 39.2444 43.5723 38.9941C43.8283 38.6406 43.9636 38.1085 44.0977 37.5938C44.2295 37.4945 44.404 37.4874 44.502 37.3516C44.7678 36.983 44.9102 36.5306 44.9727 35.9609C45.0148 35.5799 44.9796 35.2235 44.8477 34.8926C44.83 34.8482 44.752 34.8242 44.7305 34.7793C45.0096 33.6344 45.1006 32.4135 44.6582 31.293C44.236 30.2235 43.1445 29.4898 41.7813 29.2246L41.5762 28.6582C41.4325 28.2632 41.0571 28.0002 40.6367 28ZM10.9766 30.1113L11.0606 30.3418C11.2043 30.7368 11.5797 30.9998 12 31C13.1931 31 13.5387 31.3733 13.7969 32.0273C14.0551 32.6813 14.027 33.7461 13.7305 34.7051C13.6207 35.0624 13.7194 35.4512 13.9864 35.7129C13.9867 35.732 13.9876 35.7132 13.9844 35.7422C13.9534 36.0244 13.9101 36.0806 13.8985 36.1055C13.5445 36.2684 13.3173 36.622 13.3164 37.0117C13.3164 37.1332 13.18 37.509 12.9532 37.8223C12.8397 37.9789 12.7132 38.1221 12.6133 38.2226C12.5134 38.3232 12.3864 38.3991 12.5039 38.332C12.1927 38.5099 12.0004 38.8407 12 39.1992V40.9336C12.0003 41.044 12.0187 41.1535 12.0547 41.2578C12.3288 42.0586 12.9564 42.5592 13.5391 42.8887C14.1218 43.2182 14.7156 43.4375 15.2325 43.6895C15.7493 43.9414 16.1739 44.2125 16.4649 44.5527C16.5515 44.6541 16.5558 44.8789 16.625 45H5.37503C5.44428 44.879 5.44853 44.654 5.53519 44.5527C5.82614 44.2126 6.25073 43.9433 6.76761 43.6914C7.2845 43.4395 7.87819 43.2183 8.46097 42.8887C9.04375 42.5591 9.67136 42.0587 9.94535 41.2578C9.98134 41.1535 9.99982 41.044 10 40.9336V39.1992C9.99953 38.8392 9.80559 38.5073 9.49223 38.3301C9.59277 38.3869 9.47142 38.3143 9.37114 38.2168C9.27085 38.1193 9.14625 37.9808 9.03325 37.8281C8.80725 37.5228 8.66606 37.161 8.66606 36.9961C8.66553 36.6069 8.43922 36.2533 8.08598 36.0899C8.07411 36.0646 8.0294 36.009 7.99809 35.7266C7.9938 35.6877 8.002 35.7004 8.00786 35.6875C8.26186 35.4305 8.35743 35.0564 8.25786 34.709C7.82975 33.2151 7.92786 32.0273 8.40239 31.2813C8.80355 30.6505 9.64662 30.2446 10.9766 30.1113ZM39.9766 30.1113L40.0606 30.3418C40.2043 30.7368 40.5796 30.9998 41 31C42.1931 31 42.5387 31.3733 42.7969 32.0273C43.055 32.6813 43.027 33.7461 42.7305 34.7051C42.6207 35.0624 42.7194 35.4512 42.9863 35.7129C42.9867 35.732 42.9876 35.7132 42.9844 35.7422C42.9534 36.0244 42.9101 36.0806 42.8984 36.1055C42.5444 36.2684 42.3173 36.622 42.3164 37.0117C42.3164 37.1332 42.18 37.509 41.9531 37.8223C41.8397 37.9789 41.7132 38.1221 41.6133 38.2226C41.5134 38.3232 41.3863 38.3991 41.5039 38.332C41.1927 38.5099 41.0004 38.8407 41 39.1992V40.9336C41.0002 41.044 41.0187 41.1535 41.0547 41.2578C41.3288 42.0586 41.9564 42.5592 42.5391 42.8887C43.1218 43.2182 43.7156 43.4375 44.2324 43.6895C44.7493 43.9414 45.1739 44.2125 45.4649 44.5527C45.5515 44.6541 45.5558 44.8789 45.625 45H34.375C34.4443 44.879 34.4485 44.654 34.5352 44.5527C34.8261 44.2126 35.2507 43.9433 35.7676 43.6914C36.2845 43.4395 36.8782 43.2183 37.461 42.8887C38.0437 42.5591 38.6713 42.0587 38.9453 41.2578C38.9813 41.1535 38.9998 41.044 39 40.9336V39.1992C38.9995 38.8392 38.8056 38.5073 38.4922 38.3301C38.5928 38.3869 38.4714 38.3143 38.3711 38.2168C38.2708 38.1193 38.1462 37.9808 38.0332 37.8281C37.8072 37.5228 37.666 37.161 37.666 36.9961C37.6655 36.6069 37.4392 36.2533 37.086 36.0899C37.0741 36.0646 37.0294 36.009 36.9981 35.7266C36.9938 35.6877 37.002 35.7004 37.0078 35.6875C37.2618 35.4305 37.3574 35.0564 37.2578 34.709C36.8297 33.2151 36.9278 32.0273 37.4024 31.2813C37.8035 30.6505 38.6466 30.2446 39.9766 30.1113ZM32.9981 38.3965C32.8569 38.4019 32.7184 38.4372 32.5918 38.5C30.4457 39.4612 28.0424 40 25.5 40C22.9576 40 20.5544 39.4612 18.4082 38.5C18.2869 38.4432 18.1554 38.4113 18.0215 38.4062C17.541 38.39 17.1168 38.718 17.0117 39.1871C16.9066 39.6563 17.1503 40.1339 17.5918 40.3242C19.9916 41.399 22.6744 42 25.5 42C28.3256 42 31.0084 41.399 33.4082 40.3242C33.8598 40.1433 34.1157 39.6636 34.0145 39.1877C33.9132 38.7119 33.4842 38.3779 32.9981 38.3965Z" fill="#F7F6F2"/>
</svg>
